#!OML:ASF G:\JayActor3\Patient Classification 1\Patient 1\Session 6\male.ASF
:FULLY-SPECIFIED
:DEGREES
610
root 36.3872 16.2068 -15.5317 21.2307 -73.383 -16.9096
lowerback 9.3928 -0.118217 5.34468
upperback 9.5843 -0.219699 -1.4328
thorax 4.79935 0.0952867 -4.50373
lowerneck 6.72499 2.63039 6.04138
upperneck -1.10814 3.87117 -3.4937
head -1.31781 1.96533 -2.27797
rclavicle -1.98785e-015 -1.03368e-014
rhumerus -24.0221 15.8029 -96.3725
rradius 63.8007
rwrist 8.27001
rhand -33.7406 -5.25194
rfingers 7.12502
rthumb -6.92918 -35.1185
lclavicle -1.98785e-015 -1.03368e-014
lhumerus -18.4115 -10.5642 82.1293
lradius 83.5864
lwrist 5.56337
lhand -23.6216 12.4653
lfingers 7.12502
lthumb 2.84278 42.4261
rfemur -29.3134 2.68091 25.5314
rtibia 69.1884
rfoot -8.9962 -7.37256
rtoes -15.3644
lfemur -26.8726 12.8926 -22.6793
ltibia 29.8283
lfoot -5.68085 -0.204168
ltoes -0.310789
611
root 36.3542 16.199 -15.5024 21.6674 -73.5911 -17.1784
lowerback 9.5312 -0.135901 5.31799
upperback 9.60176 -0.241894 -1.43937
thorax 4.73898 0.0795712 -4.49423
lowerneck 6.73222 2.70526 6.07421
upperneck -1.26592 3.97017 -3.62301
head -1.36249 2.0163 -2.33261
rclavicle -4.41302e-014 -2.14687e-014
rhumerus -23.8663 15.8988 -96.3437
rradius 63.9007
rwrist 8.28276
rhand -33.745 -5.25812
rfingers 7.12502
rthumb -6.93339 -35.1246
lclavicle -4.41302e-014 -2.14687e-014
lhumerus -18.2383 -10.4153 82.1328
lradius 83.5886
lwrist 5.4433
lhand -24.0657 12.0512
lfingers 7.12502
lthumb 2.41392 42.0173
rfemur -30.1961 2.8818 25.4371
rtibia 68.6849
rfoot -10.3689 -8.23833
rtoes -15.7371
lfemur -27.0021 12.9192 -22.7169
ltibia 30.0642
lfoot -6.08383 -0.0415756
ltoes -0.103128
612
root 36.3214 16.1912 -15.4738 22.1442 -73.7792 -17.4958
lowerback 9.66419 -0.157252 5.30554
upperback 9.62208 -0.268868 -1.4372
thorax 4.68447 0.0621954 -4.48324
lowerneck 6.74465 2.77823 6.10361
upperneck -1.42059 4.06647 -3.74803
head -1.40726 2.06596 -2.38541
rclavicle 4.37326e-015 -3.49861e-014
rhumerus -23.7145 16.0037 -96.3117
rradius 64.0031
rwrist 8.29164
rhand -33.7483 -5.27457
rfingers 7.12502
rthumb -6.93658 -35.1409
lclavicle 4.37326e-015 -3.49861e-014
lhumerus -18.0737 -10.2615 82.1448
lradius 83.5744
lwrist 5.29726
lhand -24.5276 11.6416
lfingers 7.12502
lthumb 1.9678 41.6122
rfemur -31.0188 3.09833 25.3502
rtibia 68.0294
rfoot -11.5375 -9.15118
rtoes -15.9856
lfemur -27.1328 12.9151 -22.7309
ltibia 30.3129
lfoot -6.49256 0.141676
ltoes 0.0803216
613
root 36.2888 16.183 -15.4461 22.6466 -73.9469 -17.8448
lowerback 9.79222 -0.180639 5.3088
upperback 9.64369 -0.297989 -1.43154
thorax 4.6342 0.0447154 -4.47726
lowerneck 6.75058 2.84894 6.13125
upperneck -1.56378 4.15938 -3.86112
head -1.44746 2.11377 -2.4336
rclavicle 3.97569e-015 1.43125e-014
rhumerus -23.5612 16.1095 -96.2777
rradius 64.1058
rwrist 8.28513
rhand -33.745 -5.30197
rfingers 7.12502
rthumb -6.93342 -35.1684
lclavicle 3.97569e-015 1.43125e-014
lhumerus -17.9067 -10.1082 82.1664
lradius 83.5337
lwrist 5.13251
lhand -24.9878 11.2416
lfingers 7.12502
lthumb 1.52335 41.2159
rfemur -31.7829 3.33357 25.2623
rtibia 67.2368
rfoot -12.4956 -10.0035
rtoes -16.1617
lfemur -27.2649 12.8822 -22.7284
ltibia 30.5708
lfoot -6.91164 0.344905
ltoes 0.30571
614
root 36.2561 16.1743 -15.4193 23.1763 -74.0933 -18.2318
lowerback 9.90967 -0.203978 5.32479
upperback 9.67003 -0.327213 -1.4192
thorax 4.59516 0.0280796 -4.47142
lowerneck 6.76088 2.9132 6.16929
upperneck -1.70373 4.24464 -3.97278
head -1.4876 2.15774 -2.48323
rclavicle -1.15295e-014 2.06736e-014
rhumerus -23.4077 16.2129 -96.2382
rradius 64.2119
rwrist 8.26558
rhand -33.7412 -5.32452
rfingers 7.12502
rthumb -6.92979 -35.1911
lclavicle -1.15295e-014 2.06736e-014
lhumerus -17.7438 -9.96009 82.1954
lradius 83.4798
lwrist 4.96878
lhand -25.4341 10.8589
lfingers 7.12502
lthumb 1.09233 40.8359
rfemur -32.4811 3.59516 25.1747
rtibia 66.323
rfoot -13.2526 -10.6819
rtoes -16.1677
lfemur -27.3923 12.829 -22.7068
ltibia 30.8372
lfoot -7.33802 0.560531
ltoes 0.481475
615
root 36.2233 16.165 -15.3934 23.7102 -74.221 -18.6325
lowerback 10.0133 -0.228347 5.34415
upperback 9.70549 -0.358997 -1.40086
thorax 4.57344 0.0107094 -4.46107
lowerneck 6.75543 2.97617 6.19621
upperneck -1.83304 4.32682 -4.06729
head -1.52203 2.19988 -2.52448
rclavicle -3.4191e-014 2.3059e-014
rhumerus -23.2471 16.3183 -96.1918
rradius 64.3219
rwrist 8.23431
rhand -33.7374 -5.33976
rfingers 7.12502
rthumb -6.92609 -35.2065
lclavicle -3.4191e-014 2.3059e-014
lhumerus -17.5694 -9.80845 82.234
lradius 83.4053
lwrist 4.81722
lhand -25.8617 10.5008
lfingers 7.12502
lthumb 0.67928 40.4795
rfemur -33.1184 3.88491 25.0793
rtibia 65.3101
rfoot -13.8177 -11.1043
rtoes -16.0362
lfemur -27.5167 12.7649 -22.6758
ltibia 31.1135
lfoot -7.76892 0.786872
ltoes 0.644954
616
root 36.1906 16.1549 -15.3682 24.2437 -74.3349 -19.0412
lowerback 10.105 -0.249967 5.36926
upperback 9.7459 -0.387665 -1.38091
thorax 4.56413 -0.00439306 -4.45249
lowerneck 6.75225 3.03137 6.22764
upperneck -1.96185 4.39934 -4.1511
head -1.5573 2.23694 -2.5629
rclavicle -2.38542e-014 -1.35174e-014
rhumerus -23.0796 16.4196 -96.1387
rradius 64.4312
rwrist 8.18865
rhand -33.7263 -5.34419
rfingers 7.12502
rthumb -6.91538 -35.2112
lclavicle -2.38542e-014 -1.35174e-014
lhumerus -17.3817 -9.66321 82.2808
lradius 83.3017
lwrist 4.68957
lhand -26.271 10.1694
lfingers 7.12502
lthumb 0.284024 40.149
rfemur -33.7018 4.20223 24.9737
rtibia 64.2208
rfoot -14.2158 -11.2193
rtoes -15.923
lfemur -27.6411 12.703 -22.6404
ltibia 31.4028
lfoot -8.20261 1.01156
ltoes 0.781722
